HIERARCHY
ROOT Hips
{
OFFSET -0.1795 -22.3333 2.8219000000000003
	CHANNELS 6 Xposition Yposition Zposition Zrotation Yrotation Xrotation 
	JOINT LeftUpLeg
	{
OFFSET 6.952 -9.140600000000001 -0.6815
		CHANNELS 3 Zrotation Yrotation Xrotation
		JOINT LeftLeg
		{
OFFSET 3.4277 -37.5199 -0.4496
			CHANNELS 3 Zrotation Yrotation Xrotation
			JOINT LeftFoot
			{
OFFSET -1.3596000000000001 -39.7961 -4.3693
				CHANNELS 3 Zrotation Yrotation Xrotation
				JOINT LeftToe
				{
OFFSET 2.6358 -5.5791 11.9288
					CHANNELS 3 Zrotation Yrotation Xrotation
					End Site
					{
OFFSET 0.0 0.0 0.0
					}
				}
			}
		}
	}
	JOINT RightUpLeg
	{
OFFSET -6.7669999999999995 -9.052200000000001 -0.432
		CHANNELS 3 Zrotation Yrotation Xrotation
		JOINT RightLeg
		{
OFFSET -3.8289999999999997 -38.2569 -0.885
			CHANNELS 3 Zrotation Yrotation Xrotation
			JOINT RightFoot
			{
OFFSET 1.5774 -39.8415 -4.2312
				CHANNELS 3 Zrotation Yrotation Xrotation
				JOINT RightToe
				{
OFFSET -2.5372 -4.8144 12.3348
					CHANNELS 3 Zrotation Yrotation Xrotation
					End Site
					{
OFFSET 0.0 0.0 0.0
					}
				}
			}
		}
	}
	JOINT Spine
	{
OFFSET -0.2533 10.8963 -2.6696
		CHANNELS 3 Zrotation Yrotation Xrotation
		JOINT Spine1
		{
OFFSET 0.5487 13.517999999999999 0.1092
			CHANNELS 3 Zrotation Yrotation Xrotation
			JOINT Spine2
			{
OFFSET 0.1457 5.292199999999999 2.5425
				CHANNELS 3 Zrotation Yrotation Xrotation
				JOINT Neck
				{
OFFSET -0.2778 21.387 -4.2857
					CHANNELS 3 Zrotation Yrotation Xrotation
					JOINT Head
					{
OFFSET 0.5152 6.497 5.1349
						CHANNELS 3 Zrotation Yrotation Xrotation
						End Site
						{
OFFSET 0.0 0.0 0.0
						}
					}
				}
				JOINT LeftShoulder
				{
OFFSET 7.8845 12.1749 -3.4090000000000003
					CHANNELS 3 Zrotation Yrotation Xrotation
					JOINT LeftArm
					{
OFFSET 9.0977 3.0469 -0.8867999999999999
						CHANNELS 3 Zrotation Yrotation Xrotation
						JOINT LeftForeArm
						{
OFFSET 25.9612 -1.2772000000000001 -2.7456
							CHANNELS 3 Zrotation Yrotation Xrotation
							JOINT LeftHand
							{
OFFSET 24.9234 0.8986 -0.1171
								CHANNELS 3 Zrotation Yrotation Xrotation
								End Site
								{
OFFSET 0.0 0.0 0.0
								}
							}
						}
					}
				}
				JOINT RightShoulder
				{
OFFSET -8.1759 11.8833 -3.8614999999999995
					CHANNELS 3 Zrotation Yrotation Xrotation
					JOINT RightArm
					{
OFFSET -9.6012 3.2550999999999997 -0.9143
						CHANNELS 3 Zrotation Yrotation Xrotation
						JOINT RightForeArm
						{
OFFSET -25.374200000000002 -1.3329 -2.1401
							CHANNELS 3 Zrotation Yrotation Xrotation
							JOINT RightHand
							{
OFFSET -25.5298 0.7772 -0.5559
								CHANNELS 3 Zrotation Yrotation Xrotation
								End Site
								{
OFFSET 0.0 0.0 0.0
								}
							}
						}
					}
				}
			}
		}
	}
}
MOTION
Frames: 12
Frame Time: 0.050000
92.62219999999999 83.999 105.8714 -178.810324 38.435390 -171.138228 37.453694 -22.881762 -43.724471 -76.750007 -31.103221 30.247311 64.550261 10.596996 107.459357 0.000000 0.000000 0.000000 37.442296 -23.725748 -61.822572 -68.836914 -8.263154 51.196855 46.325211 44.507428 23.069888 0.000000 0.000000 0.000000 -60.980698 -25.059563 72.570661 4.106652 -1.239088 -30.068766 37.855353 60.331489 46.746498 16.013725 9.738862 -48.469372 0.000000 0.000000 0.000000 -6.939736 -34.287593 -26.845366 -36.298587 18.126979 -4.624605 8.144883 -46.678112 -11.198302 0.000000 0.000000 0.000000 32.424496 -1.082301 46.513630 1.760380 47.804464 -8.538375 -37.563539 18.842924 -9.086125 0.000000 0.000000 0.000000
93.9892 83.4366 105.63910000000001 -178.955851 37.332637 -172.140908 37.073763 -22.526944 -41.702842 -77.283494 -32.414975 29.758357 61.986668 4.364791 112.616870 0.000000 0.000000 0.000000 37.775315 -24.070428 -62.168902 -75.254541 -8.377883 52.497974 54.676590 47.224784 30.926486 0.000000 0.000000 0.000000 -66.024442 -24.645627 74.721893 4.957770 -1.557475 -29.788001 42.818836 62.717947 50.582347 16.066746 9.924770 -47.125480 0.000000 0.000000 0.000000 -7.118375 -34.025546 -26.982324 -35.538173 19.079806 -4.839080 9.163937 -46.680446 -11.338571 0.000000 0.000000 0.000000 34.300289 -0.622292 48.215645 -0.083128 47.792168 -9.849664 -38.119669 18.244124 -9.551420 0.000000 0.000000 0.000000
95.2226 83.1756 105.5336 -179.073333 35.922092 -172.700300 37.978297 -22.862673 -40.882918 -76.260704 -32.912019 28.781368 57.837277 0.107334 114.330975 0.000000 0.000000 0.000000 38.718208 -24.536400 -62.983583 -79.498373 -8.803148 52.230259 61.457716 47.651527 37.809847 0.000000 0.000000 0.000000 -68.833466 -24.605529 75.854996 4.390430 -1.342414 -29.209325 44.559783 63.771323 51.023617 15.735216 9.874696 -46.998878 0.000000 0.000000 0.000000 -6.913938 -33.563417 -27.097419 -35.041463 19.216978 -4.958260 10.720323 -45.730980 -11.700472 0.000000 0.000000 0.000000 34.570684 -0.495159 48.470581 0.702523 48.901016 -10.091412 -39.527342 18.736247 -10.233788 0.000000 0.000000 0.000000
96.3081 83.2013 105.5844 -179.318864 34.737274 -173.114066 37.878951 -22.850431 -39.619124 -75.904255 -32.255890 29.759797 56.200276 -1.458922 112.738197 0.000000 0.000000 0.000000 39.619345 -25.027956 -63.932624 -82.059616 -9.262363 51.418540 64.550762 47.275893 41.173401 0.000000 0.000000 0.000000 -72.138835 -24.394774 77.006051 5.093184 -1.594161 -28.983289 48.372232 65.583641 54.205263 15.229329 10.000482 -46.819116 0.000000 0.000000 0.000000 -6.429971 -32.273409 -27.678267 -34.725906 18.971860 -5.105657 9.478532 -45.846620 -11.212269 0.000000 0.000000 0.000000 34.768036 -0.679186 49.172443 -0.476709 49.356941 -10.709374 -40.363748 19.898201 -11.257362 0.000000 0.000000 0.000000
97.3109 83.4265 105.71820000000001 179.913564 33.091725 -173.421680 38.346503 -23.287021 -39.312062 -74.866636 -32.730341 29.078608 52.209231 -4.375535 112.802016 0.000000 0.000000 0.000000 40.753833 -25.830439 -65.318570 -82.869268 -10.053254 49.793033 68.765823 45.089813 45.688865 0.000000 0.000000 0.000000 -74.717413 -24.386472 78.477744 5.086107 -1.783342 -29.142452 52.694820 66.845896 57.919811 14.198507 10.084846 -47.500002 0.000000 0.000000 0.000000 -5.137745 -31.336883 -28.058120 -35.916546 18.475320 -5.759835 10.262415 -45.235287 -11.969051 0.000000 0.000000 0.000000 33.648663 -1.409030 48.842499 -0.451639 50.788009 -10.739508 -41.477301 21.748966 -12.203321 0.000000 0.000000 0.000000
98.34580000000001 83.62039999999999 105.84309999999999 179.583673 31.482685 -173.513307 38.817074 -23.756588 -39.349333 -74.304377 -32.493708 29.429180 50.613182 -5.295904 110.975238 0.000000 0.000000 0.000000 40.880778 -26.503986 -65.701701 -82.492508 -10.814008 49.040529 69.269258 43.854407 45.781574 0.000000 0.000000 0.000000 -76.496217 -24.625146 78.751117 5.126527 -1.583967 -28.566458 55.498547 67.657635 60.579362 13.737642 9.923479 -48.299356 0.000000 0.000000 0.000000 -4.384991 -30.609279 -29.743455 -35.853918 19.358693 -6.278460 7.844225 -46.089798 -11.161270 0.000000 0.000000 0.000000 32.015229 -1.945049 48.842365 -1.057799 51.928999 -10.596380 -42.510907 23.132106 -13.018361 0.000000 0.000000 0.000000
99.50189999999999 83.7478 105.877 179.129016 29.662760 -173.767005 38.770708 -24.061847 -39.154495 -74.297390 -32.741253 29.935393 50.029751 -6.171802 109.071826 0.000000 0.000000 0.000000 41.029952 -27.068994 -65.839713 -81.921383 -11.877076 47.890604 71.274917 40.938597 47.846867 0.000000 0.000000 0.000000 -79.162512 -24.640856 79.774028 5.311788 -1.783113 -28.671389 62.489197 68.432436 66.780506 12.468439 9.858178 -48.830309 0.000000 0.000000 0.000000 -3.139764 -29.666649 -31.397145 -37.023134 20.360640 -7.493364 6.842448 -46.475046 -11.211584 0.000000 0.000000 0.000000 31.003644 -2.917545 49.385035 -3.098699 52.760074 -11.206111 -43.324306 23.644487 -13.477330 0.000000 0.000000 0.000000
100.8199 83.85979999999999 105.731 178.887977 28.171896 -174.289858 39.692035 -24.683297 -39.239056 -75.510414 -33.433440 30.228203 50.093992 -5.189126 107.491244 0.000000 0.000000 0.000000 38.953814 -27.282533 -63.666953 -80.950665 -12.783608 49.320487 71.047536 41.322335 45.744671 0.000000 0.000000 0.000000 -82.296469 -24.631429 80.264492 5.482426 -1.780550 -28.318306 70.386882 69.388792 74.298710 12.062749 9.668073 -50.118159 0.000000 0.000000 0.000000 -1.943235 -29.420004 -33.577508 -37.458759 22.576485 -8.777392 4.616791 -47.857980 -10.772057 0.000000 0.000000 0.000000 30.244709 -3.273703 50.981830 -7.372604 53.507909 -12.903840 -44.104490 22.477692 -13.434272 0.000000 0.000000 0.000000
102.3015 83.9389 105.3558 178.506470 25.720737 -174.778703 39.122411 -25.005925 -39.908684 -77.256786 -34.103997 31.988539 50.537936 -4.836658 105.818452 0.000000 0.000000 0.000000 36.753758 -27.828534 -61.644657 -78.927437 -13.935040 50.460994 69.922621 40.344982 42.950893 0.000000 0.000000 0.000000 -83.542527 -25.102014 80.771984 4.963579 -1.778960 -28.607165 74.410884 69.702459 77.698304 11.747871 9.464528 -50.264836 0.000000 0.000000 0.000000 -0.916050 -30.219902 -36.892233 -35.979925 26.435906 -9.760657 1.049121 -49.342256 -9.292647 0.000000 0.000000 0.000000 29.733408 -3.932867 53.494155 -10.902331 54.145942 -14.791606 -46.180047 20.961259 -13.678828 0.000000 0.000000 0.000000
103.8923 84.0285 104.77680000000001 177.948431 23.885297 -175.321588 41.468559 -26.247612 -40.398162 -78.570401 -36.129773 30.671287 45.211689 -5.718258 107.994202 0.000000 0.000000 0.000000 35.567161 -28.081277 -60.270101 -79.849113 -14.993607 51.613584 69.868295 41.172360 41.345989 0.000000 0.000000 0.000000 -85.467610 -25.385969 80.938903 6.480914 -2.291189 -28.594489 81.576759 70.553490 85.316186 11.599323 9.245083 -51.228373 0.000000 0.000000 0.000000 0.566469 -29.644579 -42.524794 -34.543813 31.198600 -10.911704 -5.693490 -50.452419 -6.162192 0.000000 0.000000 0.000000 30.302958 -5.092226 57.674532 -19.740892 53.473350 -19.017872 -46.502895 17.357044 -13.070685 0.000000 0.000000 0.000000
105.47340000000001 84.0876 104.02359999999999 177.736269 21.691458 -176.389949 44.144341 -27.679747 -42.041468 -81.844475 -39.183441 30.013264 38.877955 -4.636212 111.369008 0.000000 0.000000 0.000000 31.173181 -28.016532 -56.022100 -79.181470 -16.379398 54.822539 69.021701 41.967407 37.645637 0.000000 0.000000 0.000000 -86.159818 -25.887333 80.950948 5.463264 -1.952623 -28.693588 84.286685 71.119461 87.481224 12.327419 9.204491 -51.080417 0.000000 0.000000 0.000000 2.469154 -29.505967 -47.491066 -32.871010 35.626338 -12.067703 -12.868608 -51.819693 -3.196539 0.000000 0.000000 0.000000 30.188963 -6.245912 60.224748 -24.844660 52.337123 -21.063162 -48.676552 15.331454 -13.360198 0.000000 0.000000 0.000000
106.8982 84.126 103.1188 178.159130 19.201019 -177.199627 52.372975 -30.990702 -44.930022 -84.902382 -51.094660 21.771052 19.544175 -3.239985 128.257812 0.000000 0.000000 0.000000 30.226185 -27.615250 -54.079293 -83.264568 -17.647907 57.619757 67.773276 44.285853 35.772221 0.000000 0.000000 0.000000 -89.327144 -26.013738 81.963877 5.646894 -2.132816 -28.781563 97.111851 70.303429 98.769876 10.661524 8.122651 -50.775870 0.000000 0.000000 0.000000 3.318870 -30.591129 -58.200234 -23.397150 42.766845 -8.534044 -25.725421 -49.125537 3.930069 0.000000 0.000000 0.000000 27.115173 -7.982689 65.179002 -31.781298 52.404249 -24.152511 -48.727432 12.316372 -11.585262 0.000000 0.000000 0.000000
